<svg xmlns="http://www.w3.org/2000/svg" viewBox="0 0 900 760" role="img" aria-label="DAV benefits assistance visual">
  <defs>
    <linearGradient id="bg" x1="0" x2="1" y1="0" y2="1"><stop offset="0" stop-color="#fffdf8"/><stop offset=".62" stop-color="#e6d9c8"/><stop offset="1" stop-color="#172b4d"/></linearGradient>
  </defs>
  <rect width="900" height="760" fill="url(#bg)"/>
  <rect x="95" y="110" width="560" height="430" rx="26" fill="#fffdf8" stroke="#d4c7b5" stroke-width="4"/>
  <path d="M150 190 H598" stroke="#13294b" stroke-width="10" stroke-linecap="round"/>
  <path d="M150 255 H525" stroke="#8e6f4e" stroke-width="7" stroke-linecap="round"/>
  <path d="M150 306 H575" stroke="#d4c7b5" stroke-width="7" stroke-linecap="round"/>
  <path d="M150 357 H485" stroke="#d4c7b5" stroke-width="7" stroke-linecap="round"/>
  <path d="M150 408 H560" stroke="#d4c7b5" stroke-width="7" stroke-linecap="round"/>
  <circle cx="605" cy="485" r="86" fill="#9b2335"/>
  <path d="M565 482 L595 512 L650 448" fill="none" stroke="#fffdf8" stroke-width="18" stroke-linecap="round" stroke-linejoin="round"/>
  <g transform="translate(575 455)">
    <circle cx="120" cy="-135" r="55" fill="#bd8d70"/>
    <path d="M58 -70 C92 -118 148 -118 182 -70 L232 205 L8 205 Z" fill="#172b4d"/>
    <path d="M86 -5 L148 205 H78 Z" fill="#f5efe5" opacity=".95"/>
    <rect x="68" y="50" width="104" height="62" rx="14" fill="#fffdf8" opacity=".96"/>
    <text x="88" y="90" fill="#13294b" font-family="Arial, sans-serif" font-size="28" font-weight="700">DAV</text>
  </g>
  <text x="95" y="655" fill="#fffdf8" font-family="Georgia, serif" font-size="46" letter-spacing="-1.5">Free claims assistance</text>
</svg>
